<svg width="100" height="100" viewBox="0 0 100 100" fill="none" xmlns="http://www.w3.org/2000/svg">
<circle cx="50" cy="50" r="50" fill="#FFC107"/>
<path d="M52.5072 54.9581C52.8874 56.8581 53.2201 58.7581 53.5053 60.6582C53.8856 62.5582 54.2658 64.4582 54.6461 66.3582C54.8362 67.4982 55.0263 68.6382 55.2165 69.7783C55.5017 70.8233 55.7393 71.8683 55.9294 72.9133C55.9294 72.8183 55.9294 72.9133 55.9294 73.1983C56.0245 73.3883 56.1196 73.7208 56.2146 74.1958C56.2146 74.3858 55.977 74.5283 55.5017 74.6233C55.0263 74.7183 54.5035 74.8133 53.9331 74.9083C53.3627 75.0033 52.7924 75.0983 52.222 75.1933C51.7467 75.1933 51.4615 75.1933 51.3664 75.1933C49.4651 75.1933 47.6114 74.8133 45.8052 74.0533C43.999 73.2933 42.3829 72.2958 40.957 71.0608C39.6261 69.7308 38.5329 68.2107 37.6773 66.5007C36.8217 64.6957 36.3939 62.7957 36.3939 60.8007C36.3939 58.7106 36.7742 56.6681 37.5347 54.6731C38.2952 52.6781 39.2934 50.8255 40.5292 49.1155C41.765 47.3105 43.1434 45.648 44.6644 44.128C46.1855 42.608 47.7065 41.1829 49.2275 39.8529C49.5127 41.3729 49.7979 42.893 50.0831 44.413C50.3682 45.838 50.701 47.2155 51.0812 48.5455C51.0812 48.6405 50.6534 48.9255 49.7979 49.4005C48.9423 49.7805 48.4194 50.0655 48.2293 50.2555C47.0886 51.1106 46.0904 52.1081 45.2348 53.2481C43.6187 55.7181 42.9533 58.3306 43.2385 61.0857C43.3336 63.8407 44.5218 66.1682 46.8034 68.0682C48.5145 69.2082 49.8454 69.8733 50.796 70.0633C51.2713 70.0633 51.4615 69.9208 51.3664 69.6357C51.2713 69.2557 50.9862 69.0657 50.5108 69.0657C48.8948 68.2107 47.754 67.1182 47.0886 65.7882C46.5182 64.3632 46.3756 62.9857 46.6608 61.6557C46.946 60.2307 47.5639 58.9006 48.5145 57.6656C49.5602 56.4306 50.8911 55.5281 52.5072 54.9581ZM54.0757 54.8156C56.5474 54.8156 58.5437 55.6706 60.0647 57.3806C61.6808 58.9956 62.6789 60.8957 63.0592 63.0807C63.5345 65.1707 63.3444 67.2607 62.4888 69.3507C61.7283 71.3458 60.2073 72.7708 57.9258 73.6258L54.0757 54.8156ZM49.0849 29.3078C47.9441 26.6478 47.6114 23.6078 48.0867 20.1877C48.562 16.7677 49.5602 13.8227 51.0812 11.3526C51.3664 10.9726 51.7467 10.5451 52.222 10.0701C52.7924 9.59511 53.3627 9.2151 53.9331 8.9301C54.5035 8.64509 55.0739 8.55009 55.6443 8.64509C56.3097 8.7401 56.8801 9.2151 57.3554 10.0701C57.8307 11.1151 58.0208 12.2551 57.9258 13.4901C57.8307 14.7252 57.5931 15.8652 57.2128 16.9102C56.6424 19.0002 55.5967 21.3277 54.0757 23.8928C52.6498 26.3628 50.9862 28.1678 49.0849 29.3078ZM47.6589 30.7328C44.807 33.2979 42.1928 36.0529 39.8162 38.9979C37.4396 41.943 35.4433 45.173 33.8272 48.688C32.7815 51.3481 32.3537 54.1506 32.5439 57.0956C32.734 59.9456 33.3994 62.6532 34.5402 65.2182C35.776 67.7832 37.4872 70.0633 39.6736 72.0583C41.8601 74.0533 44.3793 75.4308 47.2312 76.1908C49.3225 76.9508 51.6041 77.0933 54.0757 76.6183C54.3609 76.5233 54.7887 76.4283 55.3591 76.3333C56.0245 76.1433 56.4048 76.2383 56.4998 76.6183C56.785 77.6633 57.1653 78.8984 57.6406 80.3234C58.1159 81.6534 58.3536 82.8409 58.3536 83.8859C58.8289 85.2159 59.019 86.9734 58.9239 89.1585C58.8289 91.2485 58.4011 92.911 57.6406 94.146C57.0702 94.906 56.2146 95.6185 55.0739 96.2835C54.0282 96.9485 52.8874 97.4236 51.6516 97.7086C50.5108 97.9936 49.3701 97.9936 48.2293 97.7086C47.1836 97.4236 46.3281 96.711 45.6626 95.571C47.9441 95.666 49.4651 95.001 50.2256 93.576C51.0812 92.056 51.3189 90.536 50.9386 89.016C50.6534 87.4009 49.8454 86.1184 48.5145 85.1684C47.1836 84.1234 45.6151 84.0759 43.8089 85.0259C42.7632 85.5009 41.8601 86.4034 41.0996 87.7334C40.4341 88.9685 40.1014 90.156 40.1014 91.296C40.1014 93.196 40.6718 94.811 41.8125 96.141C43.0484 97.3761 44.4743 98.3261 46.0904 98.9911C47.9917 99.4661 49.8454 99.6086 51.6516 99.4186C53.4578 99.1336 55.0263 98.5636 56.3572 97.7086C57.7832 96.7585 58.8764 95.5235 59.6369 94.0035C60.3974 92.4835 60.7301 90.6785 60.6351 88.5885C60.4449 86.9734 60.2073 85.4059 59.9221 83.8859C59.732 82.3659 59.4468 80.8459 59.0665 79.3259C58.9715 78.7558 58.8764 78.2333 58.7813 77.7583C58.6863 77.1883 58.5912 76.6183 58.4962 76.0483C58.306 75.5733 58.4962 75.2408 59.0665 75.0508C59.6369 74.7658 60.1122 74.5283 60.4925 74.3383C63.3444 72.7233 65.4358 70.2058 66.7667 66.7857C67.337 65.0757 67.5747 63.3182 67.4796 61.5132C67.3846 59.7081 67.0043 57.9981 66.3389 56.3831C65.6734 54.7681 64.7228 53.2956 63.487 51.9656C62.3462 50.6355 60.9678 49.5905 59.3517 48.8305C59.2567 48.7355 58.8764 48.6405 58.211 48.5455C57.5455 48.3555 56.785 48.213 55.9294 48.118C55.1689 48.023 54.456 47.9755 53.7905 47.9755C53.1251 47.8805 52.7924 47.8805 52.7924 47.9755C52.317 46.3605 51.9368 44.793 51.6516 43.273C51.4615 41.753 51.1763 40.1379 50.796 38.4279C50.796 38.3329 50.9386 38.1429 51.2238 37.8579C51.509 37.5729 51.8417 37.2404 52.222 36.8604C52.6022 36.4804 52.9349 36.1479 53.2201 35.8629C53.6004 35.4829 53.8381 35.2454 53.9331 35.1504C54.4084 34.5804 54.8837 33.9154 55.3591 33.1554C55.8344 32.3954 56.3572 31.5403 56.9276 30.5903C58.2585 28.1203 59.1141 25.5553 59.4943 22.8952C59.9696 20.1402 60.1122 17.3852 59.9221 14.6302C59.827 12.8251 59.5894 11.0201 59.2091 9.2151C58.8289 7.41008 58.211 5.70006 57.3554 4.08505C57.2603 3.99004 57.0702 3.70504 56.785 3.23003C56.5949 2.66003 56.3097 2.13753 55.9294 1.66252C55.5492 1.09252 55.1689 0.665012 54.7887 0.380007C54.4084 1.8875e-06 54.0282 -0.0950007 53.6479 0.0949988C52.0318 0.760009 50.701 1.80502 49.6553 3.23003C48.6096 4.65505 47.8015 6.27007 47.2312 8.07509C46.6608 9.78511 46.233 11.5901 45.9478 13.4901C45.7577 15.2952 45.6626 16.9577 45.6626 18.4777C45.6626 20.6627 45.8527 22.7527 46.233 24.7478C46.7083 26.6478 47.1836 28.6428 47.6589 30.7328Z" fill="black"/>
</svg>
